<?xml version="1.0" encoding="utf-8"?>
<!-- Generator: Adobe Illustrator 24.3.0, SVG Export Plug-In . SVG Version: 6.00 Build 0)  -->
<svg version="1.1" id="Layer_1" xmlns="http://www.w3.org/2000/svg" xmlns:xlink="http://www.w3.org/1999/xlink" x="0px" y="0px"
	 viewBox="0 0 2834.65 2834.65" style="enable-background:new 0 0 2834.65 2834.65;" xml:space="preserve">
<style type="text/css">
	.st0{fill:#00A88E;}
	.st1{fill:none;stroke:#00A88E;stroke-width:20;stroke-miterlimit:10;}
	.st2{opacity:0.92;}
	.st3{fill:#00A88E;stroke:#00A88E;stroke-miterlimit:10;}
</style>
<g id="XMLID_1_">
	<g>
		<path d="M1342.53,143.56c0,0,0,0,671.38,609.12c194.4,176.37,118.83,310.98-70.38,428.02
			C2078.67,811.43,1342.53,143.56,1342.53,143.56z"/>
		<path d="M1411.88,1434.12c74.01,190.22,148.41,379.05,231.07,513.68C1520.34,1895.88,1431.35,1744.72,1411.88,1434.12z"/>
		<path d="M878.27,1653.97c-135.15,369.26,601,1037.13,601,1037.13s0,0-671.38-609.11C613.5,1905.62,689.07,1771.01,878.27,1653.97z
			"/>
		<path d="M2685.29,1361.8c-0.53,0.58-20.38,22.47-603.01,664.65c-180.4,198.84-318.67,117.85-439.33-78.65
			C2011.89,2104.03,2685.29,1361.8,2685.29,1361.8z"/>
		<path d="M1943.53,1180.7c-47.37,129.46-201.83,222.22-532.63,236.64C1608.46,1341.55,1806.01,1265.77,1943.53,1180.7z"/>
		<path d="M1164.66,881.35c132.15,46.92,228.31,201.94,246.24,535.98c-1.83,0.08-3.64,0.16-5.45,0.25
			C1328.02,1218.52,1250.77,1019.61,1164.66,881.35z"/>
		<path d="M739.52,808.21c173.53-191.26,307.59-115.58,425.14,73.14c-371.73-132-1028.15,591.51-1028.15,591.51
			S136.51,1472.87,739.52,808.21z"/>
		<path class="st0" d="M1410.9,1417.34c-1.61,0.62-3.22,1.23-4.83,1.85c-0.21-0.54-0.42-1.07-0.62-1.61
			C1407.26,1417.49,1409.08,1417.42,1410.9,1417.34z"/>
		<path d="M1406.07,1419.19c1.61-0.62,3.22-1.23,4.83-1.85c0.3,5.64,0.63,11.24,0.98,16.78
			C1409.94,1429.14,1408.01,1424.17,1406.07,1419.19z"/>
		<path d="M1405.45,1417.58c0.2,0.54,0.41,1.07,0.62,1.61c-195.95,75.16-391.4,150.4-527.8,234.78
			C925.38,1525.22,1078.4,1432.78,1405.45,1417.58z"/>
	</g>
	<g>
		<path class="st1" d="M2685.3,1361.78c0,0,0,0-0.01,0.01c-0.53,0.58-20.38,22.47-603.01,664.65
			c-180.4,198.84-318.67,117.85-439.33-78.65c-82.66-134.62-157.06-323.46-231.07-513.68c-1.93-4.98-3.87-9.95-5.8-14.93
			c-0.21-0.54-0.42-1.07-0.62-1.61c-77.43-199.06-154.68-397.98-240.79-536.23"/>
		<path class="st1" d="M1164.66,881.35c132.15,46.92,228.31,201.94,246.24,535.98c0.3,5.64,0.63,11.24,0.98,16.78
			c19.47,310.6,108.46,461.76,231.07,513.68c368.94,156.24,1042.34-586,1042.34-586"/>
		<path class="st1" d="M1164.66,881.35c-117.55-188.72-251.61-264.41-425.14-73.14c-603.01,664.65-603.01,664.65-603.01,664.65
			S792.92,749.35,1164.66,881.35z"/>
		<path class="st1" d="M1410.9,1417.34c197.56-75.79,395.11-151.57,532.63-236.64"/>
		<path class="st1" d="M878.27,1653.97c136.4-84.37,331.86-159.61,527.8-234.78"/>
		<path class="st1" d="M878.27,1653.97c-135.15,369.26,601,1037.13,601,1037.13s0,0-671.38-609.11
			C613.5,1905.62,689.07,1771.01,878.27,1653.97z"/>
		<path class="st1" d="M1405.45,1417.58c-327.05,15.19-480.07,107.64-527.18,236.38"/>
		<path class="st1" d="M1943.53,1180.7c-47.37,129.46-201.83,222.22-532.63,236.64"/>
		<path class="st1" d="M1943.53,1180.7c189.2-117.04,264.77-251.65,70.38-428.02c-671.38-609.12-671.38-609.12-671.38-609.12
			S2078.67,811.43,1943.53,1180.7z"/>
	</g>
</g>
<g id="XMLID_2_" class="st2">
	<g>
		<path d="M461.86,564.99c0,0,0,0,905.45-44.03c262.17-12.75,303.92,135.87,252.89,352.42
			C1454.65,516.72,461.86,564.99,461.86,564.99z"/>
		<path d="M2272.76,476.93c0.04,0.78,1.47,30.3,43.59,896.37c13.04,268.16-142,308.66-366.27,255.04
			C2321.44,1477.94,2272.76,476.93,2272.76,476.93z"/>
		<path d="M1620.21,873.38c58.04,125.04,14.41,299.85-209.3,543.96C1497.01,1224.05,1583.12,1030.78,1620.21,873.38z"/>
		<path d="M857.79,1212.46c126.62-60.26,304.23-18.65,553.12,204.88c-1.23,1.35-2.46,2.69-3.68,4.03
			C1211.72,1335.36,1016.43,1249.33,857.79,1212.46z"/>
		<path d="M505.45,1461.36c-12.54-257.95,135.77-299.23,352.34-248.9c-356.2,169.52-308.75,1145.27-308.75,1145.27
			S549.04,2357.73,505.45,1461.36z"/>
		<path class="st0" d="M1410.9,1417.34c-0.7,1.57-1.4,3.15-2.1,4.72c-0.53-0.23-1.05-0.46-1.58-0.7
			C1408.44,1420.02,1409.67,1418.68,1410.9,1417.34z"/>
		<path d="M1408.8,1422.06c0.7-1.57,1.4-3.15,2.1-4.72c4.21,3.78,8.39,7.5,12.56,11.17
			C1418.57,1426.36,1413.69,1424.21,1408.8,1422.06z"/>
		<path d="M1407.22,1421.36c0.52,0.23,1.05,0.47,1.58,0.7c-85.41,191.7-170.41,383.11-207.2,539.23
			C1143.88,1836.94,1186.71,1663.36,1407.22,1421.36z"/>
		<path d="M1423.46,1428.51c186.84,82.17,372.98,163.09,526.62,199.83C1826.66,1678.33,1656.86,1634.37,1423.46,1428.51z"/>
		<path d="M1201.6,1961.29c165.55,356.67,1158.33,308.39,1158.33,308.39s0.01,0-905.45,44.03
			C1192.32,2326.45,1150.57,2177.84,1201.6,1961.29z"/>
	</g>
	<g>
		<path class="st1" d="M2272.76,476.92c0,0,0,0.01,0,0.02c0.04,0.78,1.47,30.3,43.59,896.37c13.04,268.16-142,308.66-366.27,255.04
			c-153.64-36.75-339.77-117.66-526.62-199.83c-4.89-2.15-9.77-4.3-14.66-6.45c-0.53-0.23-1.05-0.46-1.58-0.7
			c-195.51-86.01-390.79-172.03-549.44-208.9"/>
		<path class="st1" d="M857.79,1212.46c126.62-60.26,304.23-18.65,553.12,204.88c4.21,3.78,8.39,7.5,12.56,11.17
			c233.4,205.86,403.21,249.82,526.62,199.83c371.36-150.4,322.69-1151.41,322.69-1151.41"/>
		<path class="st1" d="M505.45,1461.36c43.59,896.37,43.59,896.37,43.59,896.37s-47.45-975.76,308.75-1145.27
			C641.22,1162.13,492.91,1203.41,505.45,1461.36z"/>
		<path class="st1" d="M1410.9,1417.34c86.1-193.28,172.21-386.56,209.3-543.96"/>
		<path class="st1" d="M1201.6,1961.29c36.79-156.11,121.8-347.52,207.2-539.23"/>
		<path class="st1" d="M1201.6,1961.29c165.55,356.67,1158.33,308.39,1158.33,308.39s0.01,0-905.45,44.03
			C1192.32,2326.45,1150.57,2177.84,1201.6,1961.29z"/>
		<path class="st1" d="M1407.22,1421.36c-220.51,242-263.35,415.58-205.62,539.92"/>
		<path class="st1" d="M1620.21,873.38c58.04,125.04,14.41,299.85-209.3,543.96"/>
		<path class="st1" d="M1620.21,873.38c51.03-216.55,9.28-365.17-252.89-352.42c-905.45,44.03-905.45,44.03-905.45,44.03
			S1454.65,516.72,1620.21,873.38z"/>
	</g>
</g>
<path class="st3" d="M1362,2692.92V141.73C645.23,318.68,175.8,1012.71,178.08,2692.92h177.04
	C320.67,1432.39,551.93,508.9,1303.16,213.13l-74.77,2479.79L1362,2692.92z"/>
<path class="st3" d="M1459.11,141.73l-0.01,2551.18c498.58,101.91,921.46,121.78,1197.47,0l0.02-157
	c-1308.43,463.3-1122.12-406.31-1132.99-2394.18H1459.11z"/>
</svg>
